<svg version="1.1" width="274.26666" height="132.22667" viewBox="0 0 274.26666 132.22667" xmlns="http://www.w3.org/2000/svg">
  <path fill="#ffffff" d="m 270.49333,1.3997233e-4 c 2.07866,0 3.78,1.70053332767 3.78,3.77919992767 V 128.44698 c 0,2.07917 -1.70134,3.77969 -3.78,3.77969 H 3.7791732 C 1.70052,132.22667 0,130.52615 0,128.44698 V 3.7793399 C 0,1.7006733 1.70052,1.3997233e-4 3.7791732,1.3997233e-4 H 270.49333" />
  <path fill="#e41d25" d="M 124.914,48.002672 H 88.679731 V 11.768273 H 52.698932 V 48.002672 H 16.466133 V 83.987071 H 52.698932 V 120.21626 H 88.679731 V 83.987071 H 124.914 V 48.002672" />
  <path fill="#231f20" d="m 227.03599,102.3464 1.42667,-1.68853 c 2.12533,1.92187 4.16267,2.8828 6.98667,2.8828 2.73733,0 4.54266,-1.45573 4.54266,-3.46507 v -0.0583 c 0,-1.893336 -1.02,-2.969336 -5.29866,-3.872402 -4.688,-1.0188 -6.84267,-2.5328 -6.84267,-5.880267 v -0.0588 c 0,-3.202133 2.824,-5.560933 6.69733,-5.560933 2.968,0 5.09467,0.8448 7.16134,2.5036 l -1.33867,1.776 c -1.89333,-1.5432 -3.78533,-2.211867 -5.88133,-2.211867 -2.65067,0 -4.33734,1.4556 -4.33734,3.288933 v 0.0584 c 0,1.921867 1.04667,2.998934 5.53067,3.959867 4.54133,0.9896 6.63867,2.649467 6.63867,5.764133 v 0.0588 c 0,3.493196 -2.912,5.764136 -6.95867,5.764136 -3.232,0 -5.88133,-1.07667 -8.32667,-3.26054 m -17.61733,0 1.42667,-1.68853 c 2.12533,1.92187 4.16266,2.8828 6.988,2.8828 2.736,0 4.54133,-1.45573 4.54133,-3.46507 v -0.0583 c 0,-1.893336 -1.02,-2.969336 -5.29867,-3.872402 -4.68666,-1.0188 -6.84266,-2.5328 -6.84266,-5.880267 v -0.0588 c 0,-3.202133 2.824,-5.560933 6.69733,-5.560933 2.968,0 5.09467,0.8448 7.16133,2.5036 l -1.33866,1.776 c -1.89334,-1.5432 -3.78534,-2.211867 -5.88134,-2.211867 -2.64933,0 -4.33733,1.4556 -4.33733,3.288933 v 0.0584 c 0,1.921867 1.04667,2.998934 5.53067,3.959867 4.54266,0.9896 6.63866,2.649467 6.63866,5.764133 v 0.0588 c 0,3.493196 -2.912,5.764136 -6.95866,5.764136 -3.232,0 -5.88134,-1.07667 -8.32667,-3.26054 m -5.044,-7.162396 v -0.05787 c 0,-4.629734 -3.37733,-8.413467 -8.03733,-8.413467 -4.65733,0 -7.976,3.726533 -7.976,8.3552 v 0.05827 c 0,4.629199 3.37733,8.414533 8.03467,8.414533 4.65999,0 7.97866,-3.726534 7.97866,-8.356667 z m -18.40133,0 v -0.05787 c 0,-5.6192 4.22267,-10.539067 10.42267,-10.539067 6.20266,0 10.36533,4.862533 10.36533,10.4808 0.028,0.03013 0.028,0.03013 0,0.05827 0,5.618803 -4.22134,10.539063 -10.424,10.539063 -6.2,0 -10.364,-4.86146 -10.364,-10.481197 m -10.86267,0.145734 c 3.05734,0 5.24,-1.571867 5.24,-4.192667 v -0.05733 c 0,-2.504134 -1.92133,-4.018134 -5.21066,-4.018134 h -6.28934 v 8.268134 z m -8.55866,-10.3932 h 8.76266 c 2.504,0 4.512,0.757866 5.79334,2.037466 0.98933,0.990667 1.572,2.416667 1.572,4.0172 v 0.06 c 0,3.376 -2.32934,5.356667 -5.532,5.937467 l 6.26,8.32813 h -2.824 l -5.91067,-7.91933 h -0.0587 -5.764 v 7.91941 H 166.552 V 84.936538 m -21.66667,10.247466 v -0.05787 c 0,-5.765067 4.30933,-10.539067 10.30667,-10.539067 3.69733,0 5.91066,1.3104 7.948,3.232267 l -1.57334,1.6876 c -1.71733,-1.6308 -3.63866,-2.794267 -6.404,-2.794267 -4.512,0 -7.88933,3.6676 -7.88933,8.3552 v 0.05827 c 0,4.716666 3.40533,8.414533 7.88933,8.414533 2.79467,0 4.628,-1.078 6.58,-2.94 l 1.51334,1.48427 c -2.12534,2.15373 -4.45467,3.58026 -8.15067,3.58026 -5.88133,0 -10.22,-4.62973 -10.22,-10.481197 M 191.97066,74.89747 c 5.15334,0 8.44267,-3.493733 8.44267,-8.006266 v -0.05827 c 0,-4.512533 -3.28933,-8.064666 -8.44267,-8.064666 H 187.196 V 74.897471 Z M 184.896,56.643339 h 7.07466 c 6.40534,0 10.83067,4.395866 10.83067,10.131733 v 0.05787 c 0,5.7364 -4.42533,10.1896 -10.83067,10.1896 H 184.896 V 56.643339 m -18.78267,0 H 180.844 v 2.0964 h -12.43067 v 6.957733 h 11.12133 v 2.095333 h -11.12133 v 7.133333 h 12.57733 v 2.0964 H 166.11333 V 56.643339 m -11.76667,10.393199 c 3.05734,0 5.24134,-1.571866 5.24134,-4.192133 v -0.05787 c 0,-2.5036 -1.92134,-4.018266 -5.21067,-4.018266 H 148.088 v 8.268266 z M 145.788,56.643339 h 8.764 c 2.504,0 4.51066,0.757333 5.792,2.038 0.99066,0.990133 1.57333,2.416666 1.57333,4.017199 v 0.0588 c 0,3.3772 -2.32933,5.356267 -5.532,5.9396 l 6.26,8.3256 h -2.824 l -5.91067,-7.918266 h -0.0587 -5.764 v 7.918266 h -2.3 V 56.643339 m 90.41999,-28.293733 h 2.29867 v 9.054133 h 11.76267 v -9.054133 h 2.3 v 20.379733 h -2.3 v -9.1704 h -11.76267 v 9.1704 h -2.29867 V 28.349606 m -19.24933,17.410399 1.428,-1.689066 c 2.124,1.921333 4.16267,2.882266 6.98667,2.882266 2.73733,0 4.54133,-1.455733 4.54133,-3.463999 v -0.05893 c 0,-1.892666 -1.02,-2.9692 -5.29867,-3.871333 -4.68666,-1.019733 -6.84133,-2.533333 -6.84133,-5.881733 v -0.05787 c 0,-3.202533 2.824,-5.5604 6.696,-5.5604 2.96933,0 5.09467,0.844267 7.16133,2.503734 l -1.33866,1.775466 c -1.89334,-1.5432 -3.78534,-2.212533 -5.88134,-2.212533 -2.64933,0 -4.33866,1.455733 -4.33866,3.2896 v 0.0584 c 0,1.921866 1.048,2.9984 5.53333,3.959333 4.54133,0.990667 6.63733,2.65 6.63733,5.764533 v 0.0584 c 0,3.493733 -2.91066,5.764533 -6.95866,5.764533 -3.23067,0 -5.88134,-1.077066 -8.32667,-3.2604 m -6.20267,-17.410399 h 2.3 V 48.72934 h -2.3 V 28.349606 m -22.47999,0 h 2.15333 l 12.84,16.3328 v -16.3328 h 2.24 v 20.379733 h -1.83334 L 190.516,32.017873 v 16.711466 h -2.24 V 28.349606 m -8.68134,12.926533 -4.62933,-10.393733 -4.65867,10.393733 z m -5.67733,-13.0724 h 2.15333 l 9.288,20.5256 H 182.884 l -2.38667,-5.386 H 169.404 l -2.416,5.386 h -2.35867 l 9.288,-20.5256 m -21.05467,18.400533 c 5.15334,0 8.44267,-3.494266 8.44267,-8.006266 v -0.0588 c 0,-4.512534 -3.28933,-8.064667 -8.44267,-8.064667 H 148.088 V 46.604272 Z M 145.788,28.349606 h 7.07466 c 6.40534,0 10.83067,4.395866 10.83067,10.131733 v 0.05787 c 0,5.735866 -4.42533,10.190133 -10.83067,10.190133 H 145.788 V 28.349606" />
</svg>
